<svg width="225" height="97.7105" xmlns="http://www.w3.org/2000/svg" xmlns:xlink="http://www.w3.org/1999/xlink">
<g transform="translate(112.5 48.8552)">
<g transform="translate(-112.5 -48.8552)">
<path d="M 54.7821 71.3442C 51.9018 70.6795 50.6278 70.0148 50.6278 68.63L 50.6278 26.8095L 48.3013 26.8095L 45.8087 27.7511L 21.7688 27.7511L 21.7688 20.2179C 21.7688 8.4195 26.2001 3.65583 32.9579 3.65583C 36.8907 3.65583 42.2637 6.03767 39.6049 9.52733C 38.8294 10.5798 38.3309 11.466 38.3309 13.0724C 38.3309 15.9527 40.4911 17.836 43.5931 17.836C 46.9719 17.836 49.243 15.6204 49.243 12.0753C 49.243 6.4808 41.322 0 32.8471 0C 15.5096 0 11.7984 13.2939 11.7984 24.8154L 11.7984 27.6957L 0.166174 27.6957L 0 30.0775L 11.7984 31.7947L 11.7984 68.5746C 11.7984 69.904 10.5244 70.6795 8.08715 71.2888L 5.98227 71.8981L 5.76071 74.2245L 28.582 74.2245L 28.4158 71.8427L 25.2585 71.1226C 22.4335 70.5133 21.8242 69.6824 21.8242 68.5746L 21.8242 31.7947L 40.7681 31.7947L 40.7681 68.5746C 40.7681 69.904 39.2171 70.7349 37.0569 71.2334L 34.952 71.7873L 34.7304 74.1691L 57.164 74.1691L 56.9424 71.7873L 54.7821 71.3442ZM 90.1219 65.0295L 75.6647 65.0295C 70.8456 65.0295 68.7408 64.0325 68.7408 61.7614C 68.7408 59.9335 71.2888 58.1056 74.5015 58.8811C 74.5569 58.8811 74.5569 58.8811 74.6123 58.8811C 76.6617 59.435 78.9328 59.7674 81.3146 59.7674C 92.7253 59.7674 100.425 53.1758 100.425 43.3715C 100.425 39.2725 99.0953 35.7275 96.6027 32.9025C 99.3168 32.9025 101.92 32.2378 103.97 30.6869C 107.072 28.4158 107.681 25.2585 105.798 22.7105C 103.97 20.1625 100.923 20.4394 99.0399 21.6581C 97.1012 22.9321 96.8242 25.757 97.9874 27.4188C 100.48 31.3516 94.3316 30.1329 89.2356 28.1942C 87.5739 27.5295 84.1396 26.9756 81.3146 26.9756C 69.8486 26.9756 62.2046 33.5672 62.2046 43.3715C 62.2046 48.966 64.6972 53.6189 69.2393 56.5547C 65.0295 57.884 62.2046 60.9306 62.2046 65.4727C 62.2046 71.0118 66.3589 74.3353 73.3383 74.3353L 90.565 74.3353C 99.8154 74.3353 101.2 79.3205 101.2 82.2563C 101.2 86.8538 94.664 93.9439 80.5391 93.9439C 72.8951 93.9439 66.1928 91.0081 66.1928 85.2474C 66.1928 82.8102 67.9653 80.1514 70.7903 80.1514C 71.1226 80.1514 71.5657 80.2068 71.8981 80.3176C 72.0089 80.373 72.0643 80.3176 72.1196 80.2068L 72.2304 78.4897C 70.8456 77.1603 68.9623 76.4402 66.9128 76.4402C 62.8139 76.4402 58.7149 79.2098 58.7149 84.5273C 58.7149 93.113 70.1809 97.7105 80.9823 97.7105C 87.8508 97.7105 94.1654 95.9934 98.8183 92.836C 104.302 89.1248 107.182 84.4719 107.182 77.825C 107.127 73.2275 102.862 65.0295 90.1219 65.0295ZM 81.37 30.1329C 87.0753 30.1329 90.4542 35.0628 90.4542 43.3715C 90.4542 53.1204 85.7459 56.61 81.37 56.61C 78.6558 56.61 72.2858 55.336 72.2858 43.3715C 72.2304 34.8412 75.4985 30.1329 81.37 30.1329ZM 179.025 71.3442C 177.031 70.7349 176.089 70.0148 176.089 68.6854L 176.089 70.2917L 176.145 41.8759L 176.145 41.7097C 176.145 33.0133 171.27 26.9756 163.46 26.9756C 163.017 26.9756 162.629 26.9756 162.186 27.031C 154.597 27.4188 150.831 31.1854 148.948 34.8412C 147.009 29.9114 142.799 26.9756 137.482 26.9756C 131.61 26.9756 126.791 29.4128 124.132 33.678L 123.689 27.6957L 109.841 32.9025L 109.786 32.9025L 109.73 35.0628L 111.392 35.4505C 113.719 36.1152 114.439 36.7245 114.605 39.9926L 114.605 68.7408C 114.605 70.0702 113.608 70.8456 111.669 71.3996L 109.952 71.9535L 109.786 74.3353L 129.893 74.3353L 129.727 71.9535L 127.733 71.3442C 124.742 70.6241 124.077 69.7932 124.077 68.6854L 124.077 42.0975C 124.077 36.7245 127.29 33.3456 132.496 33.3456C 134.38 33.3456 140.583 34.1211 140.583 43.9808L 140.583 68.6854C 140.583 69.7932 139.919 70.6795 136.872 71.4549L 135.1 72.0089L 134.823 74.3907L 155.871 74.3907L 155.65 72.0089L 154.044 71.5103C 150.609 70.5133 150 69.7378 150 68.7408L 150 42.1529C 150 36.7799 153.213 33.401 158.419 33.401C 160.303 33.401 166.507 34.1765 166.507 44.0362L 166.507 68.7408C 166.507 69.8486 165.897 70.7349 162.851 71.4549L 160.967 72.0089L 160.746 74.3907L 180.798 74.3907L 180.631 72.0089L 179.025 71.3442ZM 224.723 70.5133C 224.668 70.5133 224.612 70.5133 224.557 70.5133C 222.12 70.5133 220.236 70.1256 220.236 65.5281L 220.236 43.3715C 220.236 33.9549 215.14 26.8095 201.957 26.8095C 194.59 26.8095 187.278 31.5731 187.278 37.223C 187.278 41.1004 189.273 43.5931 192.374 43.5931C 197.304 43.5931 199.021 38.497 196.695 35.3397C 194.479 32.2378 198.301 30.2437 201.348 30.2437C 208.383 30.2437 210.764 34.8966 210.764 43.7038L 210.764 44.4239L 210.764 49.6861C 203.342 47.1935 182.515 46.6396 182.515 62.0938C 182.515 78.3235 203.231 78.2127 211.318 70.1256C 212.482 74.1137 215.639 75 218.076 75C 221.233 75 224.335 73.6152 224.945 73.0613L 225 73.0059C 225 72.9505 224.723 70.5133 224.723 70.5133ZM 210.764 66.9682C 206.555 71.2334 192.651 74.9446 192.651 61.8168C 192.651 50.517 204.007 50.7939 210.764 52.8988L 210.764 66.9682Z"/>
</g>
</g>
</svg>
