<svg id="Layer_1" data-name="Layer 1" xmlns="http://www.w3.org/2000/svg" viewBox="0 0 312.32 64.09"><defs><style>.cls-1{fill:#4d7ef7;}.cls-2{fill:#062d8f;}.cls-3{fill:#626275;}.cls-4{fill:#4d7ef8;}.cls-5{fill:#fdfdfe;}</style></defs><path class="cls-1" d="M105.07,41.7c-.24,9.22-3.6,17.41-10.83,23.75-10.26,9-24.33,11-36.7,3.87-10.82-6.27-16.29-16-16.06-28.15.1-5.13,1-10.43,3.79-15.12,6.31-10.58,17.64-18.17,32-16.17a28,28,0,0,1,11.59,4c3.15,2,6.27,4,8.51,6.92,3.13,4.06,5.81,8.31,6.67,13.55C104.44,36.75,104.89,39.08,105.07,41.7ZM70.34,50.63c0,1.44,0,2.89,0,4.33,0,2,.52,2.46,2.87,2.49s3.12-.66,3.16-2.53c0-2.82.1-5.64,0-8.45-.06-1.44.46-1.77,1.83-1.72,2.62.09,5.25,0,7.88,0,2.31,0,3-.74,3-3.08s-.76-3-3-3c-2.55,0-5.11-.08-7.67,0-1.53.06-2.16-.29-2.06-1.93.15-2.55.06-5.11,0-7.67,0-2.32-.89-3.2-3.09-3.18s-2.93.87-3,3.1c0,2.56-.12,5.12,0,7.67.1,1.71-.56,2.09-2.17,2-2.41-.12-4.84-.06-7.26,0s-3.56,1-3.57,3c0,2.32.88,3.13,3.53,3.15s5.38.05,8.08,0c1.07,0,1.42.34,1.37,1.36-.09,1.49,0,3,0,4.51Z" transform="translate(-9.75 -9.56)"/><path class="cls-2" d="M9.75,39.4A26.12,26.12,0,0,1,31.54,15.89,22.77,22.77,0,0,1,43.25,17c1.09.37,1.75.78.74,2.14a37.25,37.25,0,0,0-7.3,24.72,34.31,34.31,0,0,0,3.72,14.82c1.16,2.17,1.87,4.6,3.82,6.33.76.67.69,1.11-.38,1.43-7.82,2.28-15.27,1.71-22.14-2.8A25.87,25.87,0,0,1,9.79,44.05,14.23,14.23,0,0,0,9.75,39.4Z" transform="translate(-9.75 -9.56)"/><path class="cls-3" d="M112.63,58.69V24.51h3.94V58.69Zm11.9,0V41.31c0-1.12,0-2.24-.1-3.36a29.41,29.41,0,0,0-.29-3.4h3.7l.43,5-.48.38a8.13,8.13,0,0,1,3.36-4.41A9.66,9.66,0,0,1,136.57,34q8.7,0,8.69,9.55V58.69h-3.89v-15c0-2.24-.44-3.87-1.34-4.89a5.23,5.23,0,0,0-4.22-1.59,7.16,7.16,0,0,0-5.38,2.07,7.63,7.63,0,0,0-2,5.57V58.69ZM149.2,37.62V34.55h15.5v3.07Zm15.4,17.61v3.32a9.24,9.24,0,0,1-1.63.33,9.06,9.06,0,0,1-1.73.15,7.45,7.45,0,0,1-5.37-1.92q-2-1.92-2-5.76v-23L157.79,27V50.82a6.63,6.63,0,0,0,.53,3,3.24,3.24,0,0,0,1.53,1.49,5.69,5.69,0,0,0,2.16.39,8.48,8.48,0,0,0,1.3-.1A8.3,8.3,0,0,0,164.6,55.23ZM177.93,59q-4.32,0-6.53-2.4t-2.16-7.11v-15h3.89V49.43a7.22,7.22,0,0,0,1.34,4.8,5.16,5.16,0,0,0,4.08,1.53,6.87,6.87,0,0,0,5.19-2.06,7.68,7.68,0,0,0,2-5.52V34.55h3.89V58.69H185.8V53.46l.58-.29a8,8,0,0,1-3.27,4.37A9.2,9.2,0,0,1,177.93,59Zm27.32,0q-6.1,0-9.65-3.12L196.9,53a14.33,14.33,0,0,0,3.93,2.2,14.64,14.64,0,0,0,4.56.68,7.57,7.57,0,0,0,4.13-.92A3.09,3.09,0,0,0,211,52.26,2.82,2.82,0,0,0,210,50a7.41,7.41,0,0,0-3.17-1.39l-4.08-1a9.18,9.18,0,0,1-4.7-2.4,5.79,5.79,0,0,1-1.63-4.13,6.07,6.07,0,0,1,1.15-3.69,7.61,7.61,0,0,1,3.21-2.55,12,12,0,0,1,4.9-.91,13.83,13.83,0,0,1,4.8.82,10,10,0,0,1,3.79,2.35L213,40a12.23,12.23,0,0,0-3.56-2.11,9.84,9.84,0,0,0-3.74-.72,6.88,6.88,0,0,0-4,1,3.19,3.19,0,0,0-1.39,2.73,3.15,3.15,0,0,0,.86,2.35A6.34,6.34,0,0,0,204,44.58l4.08,1a9.34,9.34,0,0,1,5,2.4,5.63,5.63,0,0,1,1.63,4.17,5.87,5.87,0,0,1-2.54,5A11.42,11.42,0,0,1,205.25,59Z" transform="translate(-9.75 -9.56)"/><path class="cls-4" d="M236.36,59.12A17.57,17.57,0,0,1,227.52,57a14.6,14.6,0,0,1-5.76-6.09,20.44,20.44,0,0,1-2-9.32,20,20,0,0,1,2-9.21,14.22,14.22,0,0,1,5.76-6.1,17.57,17.57,0,0,1,8.84-2.16,18.69,18.69,0,0,1,6.48,1.11,13.65,13.65,0,0,1,5.08,3l-2,4.51A15.74,15.74,0,0,0,241.3,30a13.34,13.34,0,0,0-4.85-.87,9.54,9.54,0,0,0-7.68,3.22q-2.69,3.21-2.69,9.21t2.69,9.32a9.45,9.45,0,0,0,7.68,3.21,14.23,14.23,0,0,0,4.85-.81,16.72,16.72,0,0,0,4.61-2.74l2,4.51a14.31,14.31,0,0,1-5.08,3A19.65,19.65,0,0,1,236.36,59.12ZM276,34.45V58.69h-5.9V54.8A7.93,7.93,0,0,1,266.92,58a9.74,9.74,0,0,1-4.7,1.1,10.39,10.39,0,0,1-5.62-1.53,10.21,10.21,0,0,1-3.79-4.37,15.13,15.13,0,0,1-1.34-6.58A15.44,15.44,0,0,1,252.81,40a10.68,10.68,0,0,1,3.84-4.51,9.79,9.79,0,0,1,5.57-1.63,9.43,9.43,0,0,1,4.7,1.15,7.57,7.57,0,0,1,3.17,3.12V34.45ZM263.85,54.37a5.56,5.56,0,0,0,4.61-2.06,9.17,9.17,0,0,0,1.63-5.81,9.34,9.34,0,0,0-1.63-5.91,6.19,6.19,0,0,0-9.31.1,9.45,9.45,0,0,0-1.64,5.9,8.92,8.92,0,0,0,1.64,5.76A5.76,5.76,0,0,0,263.85,54.37Zm31.74-20.5a6.71,6.71,0,0,1,2.4.39l-.05,5.47a8.29,8.29,0,0,0-3.17-.62,6.06,6.06,0,0,0-4.7,1.77,6.8,6.8,0,0,0-1.59,4.71v13.1h-6V41.31a56.17,56.17,0,0,0-.38-6.86h5.61l.48,4.27a7.21,7.21,0,0,1,2.88-3.6A8.18,8.18,0,0,1,295.59,33.87Zm26.48,13h-16.7q.19,3.88,1.92,5.76a7,7,0,0,0,5.23,1.83,11.94,11.94,0,0,0,7.39-2.6L321.64,56a13.8,13.8,0,0,1-4.27,2.26,16.37,16.37,0,0,1-5.09.81q-6,0-9.36-3.36t-3.41-9.21A14.14,14.14,0,0,1,301,39.92a10.79,10.79,0,0,1,4.18-4.46,11.47,11.47,0,0,1,6.09-1.63,10,10,0,0,1,7.88,3.26q2.93,3.21,2.92,8.88Zm-10.65-8.73a5.54,5.54,0,0,0-3.94,1.44,6.87,6.87,0,0,0-1.92,4.08h11.28a6.61,6.61,0,0,0-1.68-4.13A4.93,4.93,0,0,0,311.42,38.15Z" transform="translate(-9.75 -9.56)"/><path class="cls-5" d="M70.37,50.58c0-1.51-.05-3,0-4.52,0-1-.3-1.39-1.37-1.36-2.68.06-5.39,0-8.08,0s-3.53-.84-3.53-3.15c0-2,1.11-2.94,3.57-3s4.85-.1,7.26,0c1.61.08,2.27-.3,2.17-2-.15-2.54-.06-5.11,0-7.66,0-2.24.85-3.08,3-3.11s3.06.86,3.09,3.19c0,2.55.12,5.12,0,7.67-.1,1.64.54,2,2.06,1.92,2.56-.1,5.12-.05,7.67,0,2.2,0,3,.85,3,3,0,2.36-.68,3.08-3,3.09-2.63,0-5.26.07-7.88,0-1.37,0-1.89.28-1.83,1.72.12,2.81.06,5.64,0,8.45,0,1.87-1,2.57-3.16,2.54s-2.83-.44-2.87-2.5C70.35,53.45,70.38,52,70.37,50.58Z" transform="translate(-9.75 -9.56)"/></svg>