<svg version="1.1" xmlns="http://www.w3.org/2000/svg" xmlns:xlink="http://www.w3.org/1999/xlink" x="0px" y="0px"
	 viewBox="0 0 130 26.5" style="enable-background:new 0 0 130 26.5;" xml:space="preserve">
<style type="text/css">
	.st0{fill-rule:evenodd;clip-rule:evenodd;fill:#00B6EF;}
</style>
<path class="st0" d="M11,0H6.5C6.4,0,6.3,0,6.2,0.1C6,0.2,5.9,0.4,5.9,0.6v24.8H4V0.6C4,0.3,3.8,0,3.5,0H0.5C0.2,0,0,0.3,0,0.6v25.3
	c0,0.3,0.2,0.5,0.5,0.6c0.3,0,0.6-0.2,0.6-0.5V1.1h1.9v24.8c0,0.3,0.2,0.5,0.5,0.5h3c0.3,0,0.5-0.2,0.5-0.5V1.5
	c0-0.2,0.2-0.4,0.4-0.4H11c4.7,0,8.4,3.8,8.4,8.6c0,4.8-3.7,8.6-8.4,8.6h-1v-1.6h0.5c3.8,0,6.9-3.1,7-6.8c0.1-3.9-3.2-7.1-7.1-7.1
	H9.4c-0.3,0-0.5,0.2-0.5,0.5V6c0,0.2,0.1,0.4,0.3,0.5c0.1,0.1,0.2,0.1,0.3,0.1H10c1.6,0,2.9,1.2,3,2.8c0.1,1.6-1.2,2.9-2.8,3
	c0,0-0.1,0-0.1,0H9.4c-0.3,0-0.5,0.2-0.6,0.5c0,0.3,0.2,0.6,0.5,0.6H10c2.2,0,4-1.7,4-3.8c0.1-2.2-1.7-4-3.9-4.1c0,0-0.1,0-0.1,0
	H9.9V3.8h0.4c3.3,0,6.1,2.7,6,6c0,3.2-2.7,5.8-5.9,5.8h-1c-0.3,0-0.5,0.2-0.5,0.5v2.7c0,0.3,0.2,0.5,0.5,0.5H11
	c5.3,0,9.5-4.2,9.5-9.6C20.5,4.2,16.3,0,11,0z M46.5,10.6h1.9c0.1,0,0.2,0.1,0.2,0.1l1.7,5.9h0l1.8-5.9c0-0.1,0.1-0.1,0.2-0.1h2
	c0.1,0,0.2,0.1,0.2,0.1l1.8,5.9h0l1.8-5.9c0-0.1,0.1-0.1,0.2-0.1h1.8c0.1,0,0.2,0.1,0.2,0.3l-2.7,7.7c-0.1,0.3-0.4,0.5-0.6,0.5h-1.2
	c-0.3,0-0.6-0.2-0.7-0.5l-1.8-5.5h0l-1.8,5.5c-0.1,0.3-0.4,0.5-0.7,0.5h-1.2c-0.3,0-0.5-0.2-0.6-0.5l-2.7-7.7
	C46.2,10.7,46.3,10.6,46.5,10.6C46.4,10.6,46.4,10.6,46.5,10.6L46.5,10.6z M35.4,7.8c-0.4-0.3-0.8-0.6-1.3-0.8
	c-0.5-0.2-1.1-0.3-1.6-0.3h-4.2c-0.2,0-0.3,0.2-0.3,0.3l0,0v11.7c0,0.1,0.1,0.3,0.3,0.3h1.7c0.1,0,0.3-0.1,0.3-0.3v-4.5h2.4
	c0.6,0,1.1-0.1,1.6-0.3c0.5-0.2,0.9-0.5,1.3-0.8c0.3-0.3,0.6-0.7,0.8-1.2c0.2-0.5,0.3-1,0.3-1.5c0-0.5-0.1-1-0.3-1.5
	C36,8.6,35.7,8.2,35.4,7.8L35.4,7.8z M33.7,12c-0.4,0.3-0.9,0.5-1.5,0.5h-2.1V9c0-0.2,0.2-0.4,0.4-0.4h1.7c0.6,0,1.2,0.2,1.5,0.5
	c0.4,0.3,0.6,0.8,0.6,1.4C34.3,11.1,34.1,11.6,33.7,12z M44.3,11.6c-0.4-0.4-0.9-0.7-1.4-0.9c-0.6-0.2-1.2-0.3-1.8-0.3
	c-0.6,0-1.2,0.1-1.8,0.3c-0.5,0.2-1,0.5-1.4,0.9C37.5,12,37.2,12.5,37,13c-0.2,0.6-0.3,1.2-0.3,1.8c0,0.6,0.1,1.2,0.3,1.8
	c0.2,0.5,0.5,1,0.9,1.4c0.4,0.4,0.9,0.7,1.4,0.9c0.5,0.2,1.1,0.3,1.8,0.3s1.2-0.1,1.8-0.3c0.5-0.2,1-0.5,1.4-0.9
	c0.4-0.4,0.7-0.9,0.9-1.4c0.2-0.6,0.3-1.2,0.3-1.8c0-0.6-0.1-1.3-0.3-1.8C45.1,12.5,44.7,12,44.3,11.6z M43.3,15.9
	c-0.1,0.3-0.3,0.6-0.5,0.8c-0.2,0.2-0.5,0.4-0.8,0.5c-0.6,0.2-1.2,0.2-1.8,0c-0.3-0.1-0.5-0.3-0.8-0.5c-0.2-0.2-0.4-0.5-0.5-0.8
	c-0.1-0.4-0.2-0.7-0.2-1.1c0-0.4,0.1-0.8,0.2-1.1c0.1-0.3,0.3-0.6,0.5-0.8c0.2-0.2,0.5-0.4,0.8-0.5c0.6-0.2,1.2-0.2,1.8,0
	c0.3,0.1,0.5,0.3,0.8,0.5c0.2,0.2,0.4,0.5,0.5,0.8c0.1,0.3,0.2,0.7,0.2,1.1S43.4,15.6,43.3,15.9z M65.1,10.4c-0.5,0-1.1,0.1-1.6,0.3
	c-0.5,0.2-0.9,0.5-1.3,0.9c-0.4,0.4-0.7,0.8-0.9,1.4c-0.2,0.6-0.4,1.2-0.3,1.8c0,0.7,0.1,1.3,0.4,1.9s0.6,1,1,1.4
	c0.4,0.4,0.9,0.7,1.4,0.9c0.5,0.2,1.1,0.3,1.7,0.3c0.5,0,1-0.1,1.4-0.2c0.4-0.1,0.8-0.3,1.1-0.6c0.5-0.4,1-0.9,1.2-1.6
	c0,0,0-0.1,0-0.1c0,0-0.1-0.1-0.1-0.1l-1.4-0.4c-0.1,0-0.1,0-0.2,0.1c-0.1,0.3-0.4,0.6-0.6,0.8c-0.3,0.3-0.8,0.4-1.4,0.4
	c-0.3,0-0.6-0.1-0.9-0.2c-0.3-0.1-0.5-0.2-0.7-0.4c-0.2-0.2-0.4-0.4-0.5-0.7c-0.1-0.2-0.2-0.4-0.2-0.7c0-0.1,0-0.1,0.1-0.2
	c0.1-0.1,0.1-0.1,0.2-0.1h6l0-0.1c0-0.2,0-0.3,0-0.5c0-1.3-0.4-2.4-1.1-3.2C67.4,10.8,66.4,10.4,65.1,10.4L65.1,10.4z M67.1,13.9
	C67.1,13.9,67,14,66.9,14h-3.5c-0.1,0-0.2,0-0.3-0.1c-0.1-0.1-0.1-0.2-0.1-0.3c0.1-0.4,0.3-0.7,0.5-1c0.2-0.2,0.4-0.3,0.6-0.4
	c0.3-0.1,0.5-0.2,0.9-0.2c0.3,0,0.7,0.1,0.9,0.2c0.3,0.1,0.5,0.2,0.6,0.4c0.2,0.2,0.3,0.4,0.4,0.6c0.1,0.1,0.1,0.3,0.1,0.4
	C67.2,13.7,67.2,13.8,67.1,13.9L67.1,13.9z M95.8,16.4l-0.9-0.3c-0.2-0.1-0.5,0-0.6,0.3c-0.1,0.2-0.3,0.4-0.4,0.5
	c-0.2,0.2-0.4,0.3-0.6,0.4c-0.3,0.1-0.6,0.1-0.8,0.1c-0.3,0-0.6-0.1-0.9-0.2c-0.3-0.1-0.5-0.3-0.8-0.5c-0.2-0.2-0.4-0.5-0.5-0.8
	c-0.1-0.3-0.2-0.7-0.2-1.1c0-0.4,0.1-0.8,0.2-1.1c0.1-0.3,0.3-0.6,0.5-0.8c0.2-0.2,0.5-0.4,0.8-0.5c0.3-0.1,0.6-0.2,0.9-0.2
	c0.6,0,1.1,0.2,1.4,0.5c0.2,0.2,0.3,0.3,0.4,0.5c0.1,0.2,0.4,0.3,0.6,0.2l0.9-0.3c0.3-0.1,0.4-0.4,0.3-0.6c0,0,0,0,0-0.1
	c-0.1-0.1-0.1-0.2-0.2-0.4c-0.2-0.3-0.5-0.6-0.8-0.9c-0.4-0.3-0.8-0.5-1.2-0.6c-0.5-0.2-1-0.3-1.6-0.2c-0.6,0-1.2,0.1-1.8,0.3
	c-0.5,0.2-1,0.5-1.4,0.9c-0.4,0.4-0.7,0.9-0.9,1.4c-0.2,0.6-0.3,1.2-0.3,1.8c0,1.2,0.5,2.3,1.3,3.2c0.4,0.4,0.9,0.7,1.4,0.9
	c0.5,0.2,1.1,0.3,1.8,0.3c0.6,0,1.1-0.1,1.5-0.2s0.8-0.4,1.2-0.6c0.4-0.3,0.8-0.8,1-1.2C96.2,16.9,96.1,16.6,95.8,16.4
	C95.8,16.4,95.8,16.4,95.8,16.4L95.8,16.4z M104.7,11.4c-0.3-0.3-0.6-0.5-1-0.7c-0.4-0.2-0.9-0.3-1.4-0.3c-0.4,0-0.8,0.1-1.2,0.2
	c-0.4,0.1-0.8,0.4-1,0.7l-0.2,0.3V6.8c0-0.1-0.1-0.2-0.2-0.2h-1.6c-0.1,0-0.2,0.1-0.2,0.2v12c0,0.1,0.1,0.2,0.2,0.2h1.6
	c0.1,0,0.2-0.1,0.2-0.2v-4.7c0-0.5,0.2-1,0.5-1.3c0.3-0.4,0.7-0.5,1.3-0.5c0.6,0,1.1,0.2,1.3,0.5c0.3,0.4,0.4,0.8,0.4,1.3v4.7
	c0,0.1,0.1,0.2,0.2,0.2h1.6c0.1,0,0.2-0.1,0.2-0.2v0v-5.1c0-0.5-0.1-0.9-0.2-1.3C105.2,12,105,11.7,104.7,11.4L104.7,11.4z
	 M114.9,11.6c-0.4-0.4-0.9-0.7-1.4-0.9c-0.6-0.2-1.2-0.3-1.8-0.3c-0.6,0-1.2,0.1-1.8,0.3c-0.5,0.2-1,0.5-1.4,0.9
	c-0.4,0.4-0.7,0.9-0.9,1.4c-0.2,0.6-0.3,1.2-0.3,1.8c0,0.6,0.1,1.2,0.3,1.8c0.2,0.5,0.5,1,0.9,1.4c0.4,0.4,0.9,0.7,1.4,0.9
	c0.6,0.2,1.2,0.3,1.8,0.3c0.6,0,1.2-0.1,1.8-0.3c0.5-0.2,1-0.5,1.4-0.9c0.4-0.4,0.7-0.9,0.9-1.4c0.2-0.6,0.3-1.2,0.3-1.8
	c0-0.6-0.1-1.2-0.3-1.8C115.6,12.5,115.3,12,114.9,11.6z M113.8,15.9c-0.1,0.3-0.3,0.6-0.5,0.8c-0.2,0.2-0.5,0.4-0.8,0.5
	c-0.6,0.2-1.2,0.2-1.8,0c-0.3-0.1-0.5-0.3-0.8-0.5c-0.2-0.2-0.4-0.5-0.5-0.8c-0.1-0.4-0.2-0.7-0.2-1.1c0-0.4,0.1-0.8,0.2-1.1
	c0.1-0.3,0.3-0.6,0.5-0.8c0.2-0.2,0.5-0.4,0.8-0.5c0.6-0.2,1.2-0.2,1.8,0c0.3,0.1,0.5,0.3,0.8,0.5c0.2,0.2,0.4,0.5,0.5,0.8
	c0.1,0.3,0.2,0.7,0.2,1.1S114,15.6,113.8,15.9z M125.1,11.6c-0.4-0.4-0.9-0.7-1.4-0.9c-0.6-0.2-1.2-0.3-1.8-0.3
	c-0.6,0-1.2,0.1-1.8,0.3c-0.5,0.2-1,0.5-1.4,0.9c-0.4,0.4-0.7,0.9-0.9,1.4c-0.2,0.6-0.3,1.2-0.3,1.8c0,0.6,0.1,1.2,0.3,1.8
	c0.2,0.5,0.5,1,0.9,1.4c0.4,0.4,0.9,0.7,1.4,0.9c0.5,0.2,1.1,0.3,1.8,0.3s1.2-0.1,1.8-0.3c0.5-0.2,1-0.5,1.4-0.9
	c0.4-0.4,0.7-0.9,0.9-1.4c0.2-0.6,0.3-1.2,0.3-1.8c0-0.6-0.1-1.3-0.3-1.8C125.8,12.5,125.5,12,125.1,11.6z M124.1,15.9
	c-0.1,0.3-0.3,0.6-0.5,0.8c-0.2,0.2-0.5,0.4-0.8,0.5c-0.6,0.2-1.2,0.2-1.8,0c-0.3-0.1-0.5-0.3-0.8-0.5c-0.2-0.2-0.4-0.5-0.5-0.8
	c-0.1-0.4-0.2-0.7-0.2-1.1c0-0.4,0.1-0.8,0.2-1.1c0.1-0.3,0.3-0.6,0.5-0.8c0.2-0.2,0.5-0.4,0.8-0.5c0.6-0.2,1.2-0.2,1.8,0
	c0.3,0.1,0.5,0.3,0.8,0.5c0.2,0.2,0.4,0.5,0.5,0.8c0.1,0.3,0.2,0.7,0.2,1.1S124.2,15.6,124.1,15.9z M129.7,6.6h-1.6
	c-0.2,0-0.3,0.1-0.3,0.3v12c0,0.1,0.1,0.3,0.3,0.3h1.6c0.2,0,0.3-0.1,0.3-0.3v-12C130,6.7,129.9,6.6,129.7,6.6z M76.6,10.6
	c-1.3,0-2.1,0.2-2.8,1.3l-0.3,0.6v-1.6c0-0.1-0.1-0.1-0.1-0.1h-1.8c-0.1,0-0.1,0.1-0.1,0.1v8c0,0.1,0.1,0.2,0.2,0.2h1.8
	c0.1,0,0.2-0.1,0.2-0.2v-3.3c0-2,1.6-2.9,3.2-2.9v-1.9c0,0,0-0.1,0-0.1C76.6,10.6,76.6,10.6,76.6,10.6L76.6,10.6z M86.7,14.6
	c-0.1-0.4-0.3-0.7-0.6-1c-0.3-0.3-0.6-0.6-1-0.8c-0.4-0.2-0.9-0.4-1.4-0.5L82,12c-0.5-0.1-0.9-0.3-1.1-0.6c-0.2-0.3-0.4-0.6-0.4-1
	c0-0.2,0.1-0.5,0.2-0.7c0.1-0.2,0.2-0.4,0.4-0.5c0.2-0.2,0.4-0.3,0.7-0.4c0.3-0.1,0.5-0.1,0.8-0.1c0.4,0,0.8,0.1,1.1,0.2
	C84,9,84.2,9.2,84.4,9.4c0.2,0.2,0.3,0.4,0.4,0.6c0.1,0.2,0.3,0.3,0.5,0.3l0.9-0.3c0.1,0,0.2-0.1,0.3-0.2c0.1-0.1,0.1-0.2,0-0.3
	c-0.1-0.1-0.1-0.3-0.2-0.4c-0.2-0.4-0.4-0.7-0.8-1c-0.3-0.3-0.7-0.5-1.2-0.7C83.9,7.1,83.3,7,82.6,7c-0.5,0-1.1,0.1-1.6,0.3
	c-0.5,0.2-0.9,0.4-1.3,0.8c-0.4,0.3-0.7,0.7-0.9,1.1c-0.2,0.4-0.3,0.9-0.3,1.4c0,0.9,0.3,1.6,0.8,2.2c0.5,0.6,1.3,1,2.2,1.1l1.7,0.3
	c0.5,0.1,0.9,0.3,1.2,0.6c0.3,0.3,0.4,0.6,0.4,1c0,0.5-0.2,0.9-0.6,1.2c-0.4,0.3-0.9,0.5-1.6,0.5c-0.5,0-0.9-0.1-1.2-0.2
	c-0.3-0.1-0.6-0.3-0.9-0.5c-0.3-0.3-0.5-0.7-0.7-1.1c-0.1-0.2-0.2-0.3-0.4-0.3c0,0-0.1,0-0.1,0l-1,0.3c-0.2,0.1-0.4,0.3-0.3,0.5
	c0,0,0,0,0,0c0.1,0.2,0.1,0.4,0.2,0.7c0.2,0.4,0.5,0.8,0.9,1.2c0.4,0.4,0.9,0.7,1.4,0.9c0.6,0.2,1.2,0.3,2,0.3
	c0.7,0,1.3-0.1,1.8-0.3c0.5-0.2,1-0.5,1.3-0.8c0.3-0.3,0.6-0.7,0.8-1.1c0.2-0.4,0.3-0.9,0.3-1.3C87,15.3,86.9,14.9,86.7,14.6
	L86.7,14.6z"/>
</svg>
